<svg xmlns="http://www.w3.org/2000/svg" width="61" height="52" viewBox="0 0 61 52" fill="none">
  <path fill-rule="evenodd" clip-rule="evenodd" d="M39.1619 0.965796C39.1619 0.432219 39.5944 -0.000331223 40.128 -0.000331223H59.209C59.7426 -0.000331223 60.1751 0.432219 60.1751 0.965796V20.1676C60.1751 20.7012 59.7426 21.1337 59.209 21.1337H52.3253V32.3651C52.3253 32.8986 51.8928 33.3312 51.3592 33.3312C50.8256 33.3312 50.3931 32.8986 50.3931 32.3651L50.3931 21.1337H49.5478V32.244C49.5478 32.7776 49.1152 33.2102 48.5816 33.2102C48.048 33.2102 47.6155 32.7776 47.6155 32.244V21.1337H40.128C39.5944 21.1337 39.1619 20.7012 39.1619 20.1676V13.0424C39.1619 12.5088 39.5944 12.0763 40.128 12.0763C40.6616 12.0763 41.0941 12.5088 41.0941 13.0424V19.2014H48.5662L48.5816 19.2013L48.597 19.2014H58.2429V1.93192H41.0941V9.41941C41.0941 9.95299 40.6616 10.3855 40.128 10.3855C39.5944 10.3855 39.1619 9.95299 39.1619 9.41941V0.965796Z" fill="white"/>
  <path d="M47.4946 15.0955V10.9895M47.4946 10.9895V5.91733C47.4946 5.91733 50.0307 5.91733 50.8761 5.91733C52.2045 5.91733 52.6876 7.36652 52.6876 8.57418C52.6876 9.69917 52.0837 10.9895 50.8761 10.9895C49.6684 10.9895 47.4946 10.9895 47.4946 10.9895Z" stroke="white" stroke-width="1.93225" stroke-linecap="round" stroke-linejoin="round"/>
  <path d="M17.9072 13.0425C17.9072 13.0425 20.3225 10.5064 23.8248 10.5064C27.327 10.5064 30.2253 13.0425 30.2253 13.0425" stroke="white" stroke-width="1.93225" stroke-linecap="round" stroke-linejoin="round"/>
  <path d="M21.0472 16.6653C21.0472 16.6653 22.2312 15.4576 23.948 15.4576C25.6648 15.4576 27.0855 16.6653 27.0855 16.6653" stroke="white" stroke-width="1.93225" stroke-linecap="round" stroke-linejoin="round"/>
  <path d="M14.2842 9.66106C14.2842 9.66106 18.1203 5.55502 23.6826 5.55502C29.2449 5.55502 33.8483 9.66106 33.8483 9.66106" stroke="white" stroke-width="1.93225" stroke-linecap="round" stroke-linejoin="round"/>
  <path fill-rule="evenodd" clip-rule="evenodd" d="M53.7075 45.5285C53.7075 47.6628 51.9773 49.393 49.843 49.393C47.7087 49.393 45.9785 47.6628 45.9785 45.5285C45.9785 43.3941 47.7087 41.6639 49.843 41.6639C51.9773 41.6639 53.7075 43.3941 53.7075 45.5285ZM55.6398 45.5285C55.6398 48.7299 53.0445 51.3252 49.843 51.3252C46.6416 51.3252 44.0463 48.7299 44.0463 45.5285C44.0463 42.327 46.6416 39.7317 49.843 39.7317C53.0445 39.7317 55.6398 42.327 55.6398 45.5285ZM50.3955 45.5285C50.3955 45.8334 50.1483 46.0806 49.8434 46.0806C49.5385 46.0806 49.2913 45.8334 49.2913 45.5285C49.2913 45.2236 49.5385 44.9764 49.8434 44.9764C50.1483 44.9764 50.3955 45.2236 50.3955 45.5285ZM52.3277 45.5285C52.3277 46.9006 51.2155 48.0128 49.8434 48.0128C48.4713 48.0128 47.3591 46.9006 47.3591 45.5285C47.3591 44.1564 48.4713 43.0442 49.8434 43.0442C51.2155 43.0442 52.3277 44.1564 52.3277 45.5285Z" fill="white"/>
  <path d="M15.4247 46.1323H45.0123" stroke="white" stroke-width="1.93225" stroke-linecap="round" stroke-linejoin="round"/>
  <path fill-rule="evenodd" clip-rule="evenodd" d="M14.5794 45.5285C14.5794 47.6628 12.8492 49.393 10.7149 49.393C8.58054 49.393 6.85035 47.6628 6.85035 45.5285C6.85035 43.3941 8.58054 41.6639 10.7149 41.6639C12.8492 41.6639 14.5794 43.3941 14.5794 45.5285ZM16.5116 45.5285C16.5116 48.7299 13.9163 51.3252 10.7149 51.3252C7.51339 51.3252 4.91809 48.7299 4.91809 45.5285C4.91809 42.327 7.51339 39.7317 10.7149 39.7317C13.9163 39.7317 16.5116 42.327 16.5116 45.5285ZM11.2667 45.5285C11.2667 45.8334 11.0195 46.0806 10.7146 46.0806C10.4097 46.0806 10.1625 45.8334 10.1625 45.5285C10.1625 45.2236 10.4097 44.9764 10.7146 44.9764C11.0195 44.9764 11.2667 45.2236 11.2667 45.5285ZM13.1989 45.5285C13.1989 46.9006 12.0867 48.0128 10.7146 48.0128C9.34255 48.0128 8.23028 46.9006 8.23028 45.5285C8.23028 44.1564 9.34255 43.0442 10.7146 43.0442C12.0867 43.0442 13.1989 44.1564 13.1989 45.5285Z" fill="white"/>
  <path d="M5.88432 45.8908C5.88432 45.8908 2.26134 44.9246 1.05367 43.2339C0.932914 40.094 1.05366 35.7464 1.05367 33.8142C1.05369 31.3989 3.01568 31.5175 5.64276 30.7951C10.4734 29.4667 12.4057 24.636 17.2363 24.636C22.7543 24.6359 24.1199 24.636 30.7621 24.636C36.5661 24.6359 39.3381 29.7748 45.0124 31.7612C49.3965 33.2959 48.7562 32.7273 54.7945 34.0558C60.229 35.6257 59.3836 40.9394 59.3836 42.9924C59.3836 45.0454 57.5721 46.1323 57.5721 46.1323H54.7945" stroke="white" stroke-width="1.93225" stroke-linecap="round" stroke-linejoin="round"/>
  <path d="M17.961 35.8673H41.0273C45.7371 35.8673 32.936 27.776 29.7961 27.776C24.7239 27.776 22.7916 27.8967 17.961 27.8967C14.7003 27.8967 4.19367 35.8673 8.90352 35.8673H13.0096" stroke="white" stroke-width="1.93225" stroke-linecap="round" stroke-linejoin="round"/>
  <path d="M21.946 28.0174V35.5049" stroke="white" stroke-width="1.93225" stroke-linecap="round" stroke-linejoin="round"/>
  <path d="M22.067 38.8863H25.2069" stroke="white" stroke-width="1.93225" stroke-linecap="round" stroke-linejoin="round"/>
</svg>